# xmcd
#
# Track frame offsets: 
#        150
#        44330
#        74422
#        117765
#        147552
#        185342
#
# Disc length: 2897 seconds
#
# Revision: 7
# Processed by: cddbd v1.5.2PL0 Copyright (c) Steve Scherf et al.
# Submitted via: ExactAudioCopy v0.99pb4
#
DISCID=570b4f06
DTITLE=Stan Getz - The Dolphin
DYEAR=1981
DGENRE=Jazz
TTITLE0=The Dolphin
TTITLE1=A Time For Love
TTITLE2=Joy Spring
TTITLE3=My Old Flame
TTITLE4=The Night Has A Thousand Eyes
TTITLE5=Close Enough For Love (Theme From "Agatha")
EXTD=YEAR: 1981
EXTT0=
EXTT1=
EXTT2=
EXTT3=
EXTT4=
EXTT5=
PLAYORDER=
